<svg version="1.1" id="Layer_1" xmlns="http://www.w3.org/2000/svg" xmlns:xlink="http://www.w3.org/1999/xlink" x="0px" y="0px"
	 width="100%" viewBox="0 0 500 500" enable-background="new 0 0 500 500" xml:space="preserve">
<path fill="#FECBEC" opacity="1.000000" stroke="none" 
	d="
M234.000000,501.000000 
	C156.000015,501.000000 78.500038,501.000000 1.000041,501.000000 
	C1.000028,334.333405 1.000028,167.666779 1.000014,1.000131 
	C167.666565,1.000087 334.333130,1.000087 500.999756,1.000044 
	C500.999847,167.666519 500.999847,334.333038 500.999939,500.999786 
	C412.166656,501.000000 323.333344,501.000000 234.000000,501.000000 
M259.334473,272.329773 
	C259.876770,272.554504 260.419098,272.779236 261.062805,273.881653 
	C259.124268,288.510071 257.185730,303.138519 255.195953,318.153473 
	C257.072266,318.153473 259.533997,318.153473 262.007660,319.022675 
	C261.137115,323.908722 263.241028,325.212921 268.025909,325.114136 
	C282.515900,324.814911 297.015961,325.017914 311.512115,325.000946 
	C316.976135,324.994537 318.348358,323.873352 316.664459,319.010712 
	C312.491852,306.961273 312.450256,294.369415 312.285065,282.055176 
	C311.872131,251.273361 312.550690,220.471909 313.160614,189.685669 
	C313.277130,183.803574 315.171112,177.968033 316.073120,172.084656 
	C316.438507,169.701630 316.343628,167.248062 316.458160,164.826584 
	C313.921783,164.878098 311.385406,164.929611 308.842468,164.150955 
	C309.296234,161.958374 309.749969,159.765793 310.276093,157.223602 
	C295.912323,157.223602 282.099731,157.336319 268.291473,157.140686 
	C265.027069,157.094421 263.787140,158.280792 262.727936,161.218872 
	C256.704437,177.927490 250.446136,194.551559 244.241791,211.194717 
	C243.637955,212.814514 242.857391,214.368439 241.654587,217.096756 
	C237.183182,210.083633 233.371109,204.104630 230.188187,197.801392 
	C229.800888,195.792862 229.863495,193.545334 228.946167,191.818344 
	C225.505508,185.340897 224.658157,178.489197 224.925232,171.299896 
	C225.192612,164.103165 225.050095,164.097870 217.849274,163.157684 
	C218.149368,161.267822 218.449448,159.377960 218.792084,157.220154 
	C207.603668,157.220154 196.790604,157.403305 185.989975,157.117462 
	C182.374237,157.021790 180.506699,158.493500 179.003754,161.377365 
	C175.362671,168.363861 174.044998,176.148651 176.847900,183.124542 
	C184.495956,202.159088 182.877197,221.888046 182.938995,241.555725 
	C182.959381,248.045212 183.015015,254.536087 182.914093,261.024139 
	C182.617920,280.066010 182.754974,299.154846 177.174393,318.157379 
	C180.334229,318.157379 183.149414,318.157379 185.961945,318.891632 
	C185.453659,320.718414 184.945389,322.545166 183.992783,325.968842 
	C192.188950,325.605225 199.572845,325.277649 207.888168,324.985413 
	C211.927444,324.953857 215.966721,324.922302 220.641281,324.827209 
	C220.432404,323.569489 220.223526,322.311798 219.585648,320.778351 
	C219.372543,320.515076 219.159424,320.251831 218.949860,319.247101 
	C218.873062,318.757111 218.936844,318.181824 218.698914,317.789581 
	C212.707443,307.911316 207.514954,297.736115 205.411514,286.183685 
	C204.950638,283.652496 203.193573,281.357300 202.044281,278.080353 
	C201.144699,269.563599 199.869156,261.064758 199.461456,252.524506 
	C199.119843,245.368484 199.791473,238.164062 200.529205,231.429962 
	C204.972488,239.560120 210.008957,247.431473 213.699753,255.889969 
	C217.755997,265.186035 218.927368,274.804596 209.333206,283.125946 
	C212.662949,284.649323 215.327072,285.868195 217.945847,287.722931 
	C218.598129,289.225647 218.856644,291.509308 219.980835,292.076202 
	C222.717743,293.456299 225.836853,294.740540 228.836380,294.823669 
	C242.178284,295.193420 251.328995,288.325287 257.031586,275.326721 
	C257.348022,274.213074 257.664459,273.099457 258.497864,271.939117 
	C258.666870,271.902435 258.835876,271.865753 259.334473,272.329773 
M431.340668,316.284637 
	C433.052826,316.579010 434.764984,316.873383 436.477112,317.167755 
	C436.584076,316.873840 436.691040,316.579895 436.798004,316.285980 
	C433.744263,314.433105 430.690491,312.580261 427.636749,310.727417 
	C427.173462,311.120605 426.710175,311.513763 426.246887,311.906952 
	C427.505402,313.934570 428.763916,315.962219 429.692352,318.763550 
	C427.907471,318.796600 426.075043,318.600433 424.357300,318.956940 
	C423.464111,319.142334 422.773468,320.303528 421.905731,321.707611 
	C420.568298,323.165771 419.230865,324.623932 417.633881,326.365051 
	C420.243500,328.673462 422.905060,331.027832 426.063446,333.821716 
	C426.913910,329.958038 427.468933,327.436646 428.666931,325.070282 
	C429.536987,325.299164 430.407043,325.528076 431.277130,325.756989 
	C431.403717,325.446075 431.530304,325.135193 431.656921,324.824280 
	C430.151825,323.720215 428.646729,322.616150 426.916382,321.346802 
	C432.332184,320.503448 432.332184,320.503448 431.340668,316.284637 
M385.598206,349.257355 
	C384.771881,345.613922 384.771881,345.613922 381.285492,345.590118 
	C382.206421,354.693054 382.494781,355.360535 385.217194,355.473694 
	C385.372650,353.692596 385.526764,351.927155 386.293945,349.762421 
	C387.267456,350.673798 388.240936,351.585175 389.584534,352.842987 
	C390.391266,351.019073 390.998230,349.646820 391.704834,348.049286 
	C392.540527,349.961029 393.292358,351.680969 394.044189,353.400940 
	C394.447754,353.237335 394.851318,353.073761 395.254883,352.910156 
	C394.396881,349.558075 393.538879,346.205994 392.680878,342.853912 
	C392.214630,342.780396 391.748413,342.706909 391.282166,342.633392 
	C390.728180,344.050812 389.968475,345.426117 389.667603,346.895386 
	C389.196350,349.196716 388.315216,350.704071 385.598206,349.257355 
M104.553925,262.415588 
	C104.553925,262.415588 104.640938,262.438568 104.302094,263.214203 
	C104.775581,267.200012 105.724648,270.585815 110.524452,271.670776 
	C113.136032,272.261108 115.556717,273.913727 117.921799,275.324768 
	C121.324501,277.354828 124.412247,279.995361 127.966339,281.671600 
	C134.895508,284.939636 142.006393,287.844818 149.153397,290.612701 
	C150.916260,291.295471 153.106842,290.873810 155.760178,291.289703 
	C158.400726,297.293030 154.378815,302.952423 147.533493,301.505646 
	C141.033844,300.131958 134.529327,297.558563 128.770828,294.226959 
	C122.351639,290.513092 117.002411,284.995911 110.761803,280.914520 
	C104.422722,276.768677 97.880653,272.523163 90.824135,270.026855 
	C86.026817,268.329742 80.177696,269.358002 74.828606,269.672546 
	C73.726723,269.737335 71.878151,272.028290 71.859810,273.314331 
	C71.649086,288.088806 71.725548,302.867401 71.725548,317.797119 
	C73.613411,317.934662 75.249123,318.053802 76.867256,318.959259 
	C73.247833,323.813568 73.987938,325.677246 80.217178,327.221954 
	C81.653931,327.578247 83.137688,327.960632 84.600563,327.963623 
	C107.552826,328.010284 130.509140,328.210083 153.453766,327.789093 
	C157.323578,327.718140 162.270004,325.885895 164.682724,323.102356 
	C167.323441,320.055817 167.601791,314.961609 168.911453,310.379913 
	C168.911453,310.379913 168.994156,310.009125 169.731079,309.894653 
	C170.462372,309.086639 171.566879,308.396637 171.865570,307.451874 
	C174.126999,300.298492 176.264450,293.488495 175.392075,285.393463 
	C174.240799,274.710266 173.711731,263.977966 169.324905,254.144867 
	C167.186874,249.352463 163.023010,245.436829 159.580582,241.286545 
	C159.136200,240.750793 157.514297,241.191742 155.870514,240.889236 
	C149.453079,234.900818 143.595413,228.111725 136.472672,223.132187 
	C128.084717,217.268158 118.550400,213.060165 109.609253,207.965454 
	C103.589333,204.535278 97.735931,200.812851 91.872536,196.410507 
	C89.549973,187.218323 91.883934,184.574600 101.755707,186.181152 
	C106.829330,190.468536 111.902946,194.755905 117.072655,199.738083 
	C117.849037,199.983261 118.625420,200.228455 119.443871,200.533493 
	C119.443871,200.533493 119.512970,200.557480 119.256805,201.240891 
	C124.455681,204.545197 129.317551,208.675430 134.930237,210.965622 
	C143.977371,214.657242 153.459412,215.756836 162.847946,211.110641 
	C166.565811,209.270737 168.231644,206.900665 168.123718,202.583954 
	C167.845886,191.471390 168.034866,180.347397 168.004745,169.228058 
	C168.000443,167.637680 167.815399,166.047806 167.702438,164.276413 
	C165.200836,164.158768 163.224274,164.065811 161.090866,163.098328 
	C161.090866,161.298218 161.090866,159.498108 161.090866,157.223465 
	C159.063904,157.223465 157.432556,157.223846 155.801193,157.223419 
	C138.325043,157.218735 120.843712,157.464615 103.374886,157.104279 
	C94.526283,156.921783 88.129868,160.427048 82.892822,167.205841 
	C67.716614,186.849792 67.310448,217.691360 82.684601,240.168030 
	C87.041878,246.538269 92.969513,251.834366 98.089874,258.510834 
	C98.087868,264.750336 98.408806,264.942322 104.553925,262.415588 
M365.014740,200.005447 
	C365.014740,200.005447 365.065002,199.919052 365.126373,200.602890 
	C375.291046,211.136612 387.981018,214.971542 402.182007,213.822144 
	C411.085510,213.101517 414.993317,208.216156 414.991943,199.460236 
	C414.990417,189.974487 414.994141,180.488739 414.997040,171.002991 
	C414.999176,164.009705 415.000214,164.009705 407.761230,163.183746 
	C407.672302,161.261353 407.583405,159.338959 407.485382,157.220200 
	C388.742615,157.220200 370.580200,157.869141 352.489746,157.007355 
	C338.912872,156.360580 330.895325,162.900269 325.145721,173.837906 
	C311.710724,199.395584 317.654327,232.289749 338.912689,252.040298 
	C348.405060,260.859406 359.250702,267.477600 370.768585,273.185486 
	C379.983826,277.752228 389.246033,282.250610 398.234100,287.235962 
	C401.667847,289.140533 405.036072,292.286743 402.902008,296.985199 
	C400.904602,301.382874 396.690918,302.736359 392.382019,301.408142 
	C386.742157,299.669617 380.890106,297.825958 375.979919,294.694031 
	C368.013611,289.612762 360.807709,283.353058 353.151489,277.768127 
	C345.790100,272.398285 337.738953,268.555969 328.425568,268.205261 
	C320.367065,267.901794 318.082245,270.116608 318.079926,277.884064 
	C318.076477,289.536865 318.071808,301.189636 318.067841,312.842438 
	C318.067261,314.459015 318.067780,316.075592 318.067780,317.800385 
	C320.730042,317.934723 322.868011,318.042633 325.014099,319.018677 
	C324.191986,323.871948 326.258942,325.163727 331.051331,325.113037 
	C354.035400,324.869659 377.023834,324.928680 400.009674,325.063385 
	C404.679626,325.090729 407.685242,323.245117 410.387878,319.524597 
	C416.490814,311.123169 418.155701,301.514221 419.381714,291.566162 
	C421.370422,275.429504 418.209106,260.610901 408.945679,247.235718 
	C407.743805,245.500275 405.510742,244.479019 403.179901,242.780655 
	C399.268311,238.294052 395.773926,233.340332 391.368988,229.406067 
	C376.554504,216.174454 357.778320,209.594696 340.653778,199.391556 
	C339.612579,198.658569 338.571350,197.925583 337.273346,196.821671 
	C337.014954,196.616760 336.900055,196.350037 337.509857,195.496979 
	C337.435638,189.828537 339.399445,185.471054 345.830170,183.814514 
	C351.239319,188.527527 356.648468,193.240540 362.154724,198.647964 
	C363.129517,199.074417 364.104309,199.500854 365.014740,200.005447 
M399.467194,339.154907 
	C398.632019,340.601837 397.796814,342.048767 396.961609,343.495667 
	C399.311005,344.397156 401.660431,345.298615 404.686768,346.459839 
	C402.699890,347.403656 400.968262,348.226196 398.576904,349.362122 
	C402.768890,350.729553 406.058411,349.868713 406.514008,346.528046 
	C407.286865,340.860992 401.354462,344.338043 398.695068,342.239532 
	C400.545044,341.211212 401.911041,340.451904 403.277039,339.692627 
	C403.164154,339.437103 403.051270,339.181549 402.938385,338.926025 
	C402.012665,338.926025 401.086975,338.926025 399.467194,339.154907 
M372.122681,346.330811 
	C365.251831,352.668823 376.230103,351.015686 375.803467,354.925293 
	C373.836487,354.824646 371.960297,354.728607 370.084106,354.632599 
	C372.435547,357.507355 375.481628,358.221313 377.405823,355.538940 
	C378.176819,354.464111 376.017548,351.287231 375.050171,348.685577 
	C375.297577,348.548615 376.436584,347.918060 377.575623,347.287506 
	C377.534241,346.965424 377.492859,346.643341 377.451477,346.321259 
	C375.916351,346.227325 374.381226,346.133423 372.122681,346.330811 
M414.410156,328.358368 
	C412.648590,330.002808 410.887024,331.647278 409.125458,333.291748 
	C415.092499,330.371124 415.646027,338.278473 421.245575,338.912170 
	C419.041901,336.359924 417.477234,334.960938 416.458923,333.238861 
	C415.630859,331.838440 415.457703,330.050751 414.410156,328.358368 
M429.513336,327.432281 
	C429.513336,327.432281 429.556000,327.514008 429.513336,327.432281 
z"/>
<path fill="#050203" opacity="1.000000" stroke="none" 
	d="
M261.995758,318.153473 
	C259.533997,318.153473 257.072266,318.153473 255.195953,318.153473 
	C257.185730,303.138519 259.124268,288.510071 261.150330,273.053772 
	C261.500092,267.150940 261.762299,262.075989 262.130920,256.542328 
	C262.170166,251.613434 261.946747,247.139038 262.067230,242.673950 
	C262.351868,232.127960 262.800140,221.586380 263.340057,210.816071 
	C263.410187,210.060913 263.322449,209.532700 263.368011,208.562561 
	C263.416107,204.741104 263.330933,201.361557 263.376923,197.546844 
	C263.508087,193.573608 263.508087,190.035583 263.508087,186.497543 
	C262.839661,186.351547 262.171204,186.205566 261.502777,186.059570 
	C257.856842,196.962784 254.210892,207.865997 250.626007,218.785690 
	C250.687057,218.802155 250.646027,218.682556 250.420074,218.902756 
	C250.125458,219.740707 250.056778,220.358444 249.763199,221.281830 
	C249.449402,225.415604 248.283997,229.614014 249.451981,233.009857 
	C255.542542,250.717957 255.157516,266.983948 240.933075,280.952820 
	C240.975494,280.979736 240.927231,280.891632 240.598663,281.014313 
	C233.719162,286.398041 226.232529,288.155457 217.991180,287.087067 
	C215.327072,285.868195 212.662949,284.649323 209.333206,283.125946 
	C218.927368,274.804596 217.755997,265.186035 213.699753,255.889969 
	C210.008957,247.431473 204.972488,239.560120 200.227783,230.862091 
	C197.757919,227.050674 195.589493,223.807129 193.421066,220.563583 
	C192.958313,220.800461 192.495560,221.037338 192.032806,221.274231 
	C192.032806,228.669128 191.329147,236.147141 192.190643,243.440277 
	C193.637787,255.691223 196.080582,267.824554 198.075195,280.391663 
	C201.813889,293.952179 207.487259,306.259155 214.554520,317.824677 
	C213.457397,317.977448 212.725540,318.069214 211.531189,318.085480 
	C202.700653,318.059113 194.332626,318.108246 185.964584,318.157349 
	C183.149414,318.157379 180.334229,318.157379 177.174393,318.157379 
	C182.754974,299.154846 182.617920,280.066010 182.914093,261.024139 
	C183.015015,254.536087 182.959381,248.045212 182.938995,241.555725 
	C182.877197,221.888046 184.495956,202.159088 176.847900,183.124542 
	C174.044998,176.148651 175.362671,168.363861 179.003754,161.377365 
	C180.506699,158.493500 182.374237,157.021790 185.989975,157.117462 
	C196.790604,157.403305 207.603668,157.220154 218.792084,157.220154 
	C218.449448,159.377960 218.149368,161.267822 217.644043,163.896851 
	C215.989304,177.785934 222.458344,188.070084 229.559036,198.125626 
	C233.371109,204.104630 237.183182,210.083633 241.654587,217.096756 
	C242.857391,214.368439 243.637955,212.814514 244.241791,211.194717 
	C250.446136,194.551559 256.704437,177.927490 262.727936,161.218872 
	C263.787140,158.280792 265.027069,157.094421 268.291473,157.140686 
	C282.099731,157.336319 295.912323,157.223602 310.276093,157.223602 
	C309.749969,159.765793 309.296234,161.958374 308.583984,164.851440 
	C307.533203,171.484146 306.143677,177.406784 306.048584,183.350143 
	C305.547699,214.660568 304.953613,245.980637 305.281952,277.288025 
	C305.423615,290.794464 307.708191,304.278412 309.056305,318.153473 
	C293.955566,318.153473 277.975677,318.153473 261.995758,318.153473 
z"/>
<path fill="#050204" opacity="1.000000" stroke="none" 
	d="
M340.780212,200.016418 
	C357.778320,209.594696 376.554504,216.174454 391.368988,229.406067 
	C395.773926,233.340332 399.268311,238.294052 403.571594,243.295715 
	C412.571777,258.048798 413.480011,273.581757 411.523071,289.546661 
	C410.532990,297.623871 408.592773,305.373901 403.511353,312.084869 
	C400.484314,316.082611 397.042267,318.114319 391.781281,318.072968 
	C369.524445,317.898163 347.264679,318.091644 325.006012,318.150513 
	C322.868011,318.042633 320.730042,317.934723 318.067780,317.800385 
	C318.067780,316.075592 318.067261,314.459015 318.067841,312.842438 
	C318.071808,301.189636 318.076477,289.536865 318.079926,277.884064 
	C318.082245,270.116608 320.367065,267.901794 328.425568,268.205261 
	C337.738953,268.555969 345.790100,272.398285 353.151489,277.768127 
	C360.807709,283.353058 368.013611,289.612762 375.979919,294.694031 
	C380.890106,297.825958 386.742157,299.669617 392.382019,301.408142 
	C396.690918,302.736359 400.904602,301.382874 402.902008,296.985199 
	C405.036072,292.286743 401.667847,289.140533 398.234100,287.235962 
	C389.246033,282.250610 379.983826,277.752228 370.768585,273.185486 
	C359.250702,267.477600 348.405060,260.859406 338.912689,252.040298 
	C317.654327,232.289749 311.710724,199.395584 325.145721,173.837906 
	C330.895325,162.900269 338.912872,156.360580 352.489746,157.007355 
	C370.580200,157.869141 388.742615,157.220200 407.485382,157.220200 
	C407.583405,159.338959 407.672302,161.261353 407.762634,164.059967 
	C407.760193,174.396881 407.776520,183.857620 407.746002,193.318222 
	C407.721558,200.900208 406.161377,203.244293 398.892700,205.481491 
	C395.936707,206.391312 392.731964,206.812515 389.629974,206.867401 
	C380.784882,207.023956 372.845459,203.686783 365.065002,199.919052 
	C365.065002,199.919052 365.014740,200.005447 364.909607,199.683105 
	C363.888885,198.891678 362.973236,198.422623 362.057617,197.953552 
	C356.648468,193.240540 351.239319,188.527527 345.409180,183.376984 
	C343.552490,181.853531 342.168457,180.689713 340.670898,179.697235 
	C337.075317,177.314331 333.675140,176.843506 330.777039,181.078583 
	C330.561157,181.243942 330.428131,181.357925 330.448578,181.425278 
	C330.509491,181.625900 330.630676,181.808228 330.730164,182.338776 
	C330.561371,183.100876 330.390778,183.521912 329.974182,184.082016 
	C330.179749,185.804016 330.631348,187.386948 331.296326,189.159271 
	C331.765533,190.060944 332.021362,190.773239 332.123566,191.798615 
	C331.783386,193.344315 331.596863,194.576920 331.410309,195.809540 
	C332.944702,195.856705 334.479095,195.903870 336.240540,195.991058 
	C336.467621,196.031082 336.928619,196.021500 336.928619,196.021500 
	C336.900055,196.350037 337.014954,196.616760 337.305847,197.386932 
	C338.485626,198.640259 339.632904,199.328339 340.780212,200.016418 
z"/>
<path fill="#040205" opacity="1.000000" stroke="none" 
	d="
M76.884842,318.172974 
	C75.249123,318.053802 73.613411,317.934662 71.725548,317.797119 
	C71.725548,302.867401 71.649086,288.088806 71.859810,273.314331 
	C71.878151,272.028290 73.726723,269.737335 74.828606,269.672546 
	C80.177696,269.358002 86.026817,268.329742 90.824135,270.026855 
	C97.880653,272.523163 104.422722,276.768677 110.761803,280.914520 
	C117.002411,284.995911 122.351639,290.513092 128.770828,294.226959 
	C134.529327,297.558563 141.033844,300.131958 147.533493,301.505646 
	C154.378815,302.952423 158.400726,297.293030 155.363373,290.788025 
	C151.310150,287.752838 147.859283,284.833527 143.959808,282.756409 
	C130.940109,275.821259 117.759743,269.187683 104.640930,262.438568 
	C104.640938,262.438568 104.553925,262.415588 104.345032,262.118530 
	C102.149750,260.421997 100.163353,259.022552 98.176956,257.623077 
	C92.969513,251.834366 87.041878,246.538269 82.684601,240.168030 
	C67.310448,217.691360 67.716614,186.849792 82.892822,167.205841 
	C88.129868,160.427048 94.526283,156.921783 103.374886,157.104279 
	C120.843712,157.464615 138.325043,157.218735 155.801193,157.223419 
	C157.432556,157.223846 159.063904,157.223465 161.090866,157.223465 
	C161.090866,159.498108 161.090866,161.298218 161.090561,163.998077 
	C161.074142,175.390991 161.255325,185.891113 160.884125,196.371689 
	C160.804932,198.608231 159.251099,201.467758 157.458237,202.843063 
	C151.853745,207.142273 145.080887,207.930435 138.416016,206.444916 
	C131.996490,205.014114 125.804771,202.561295 119.512970,200.557480 
	C119.512970,200.557480 119.443871,200.533493 119.278519,200.241165 
	C118.400963,199.646988 117.688766,199.345139 116.976570,199.043289 
	C111.902946,194.755905 106.829330,190.468536 101.358429,185.709229 
	C98.072617,183.047058 95.409836,180.424774 92.241798,178.769440 
	C87.675415,176.383438 83.845772,179.024170 84.040634,184.192230 
	C84.254227,189.857208 86.876144,194.274704 91.808037,197.221176 
	C97.735931,200.812851 103.589333,204.535278 109.609253,207.965454 
	C118.550400,213.060165 128.084717,217.268158 136.472672,223.132187 
	C143.595413,228.111725 149.453079,234.900818 156.207153,241.366791 
	C157.069275,242.557999 157.594772,243.271667 158.101517,244.345840 
	C164.624069,256.389343 166.816956,269.064087 165.734299,282.201202 
	C164.975113,291.413208 164.444962,300.839294 158.986832,308.972626 
	C156.191635,313.137787 153.694275,317.537445 147.513504,318.051086 
	C124.352760,318.046051 101.652443,318.120789 78.697556,318.120087 
	C77.923607,318.087433 77.404228,318.130219 76.884842,318.172974 
z"/>
<path fill="#F6B6B5" opacity="1.000000" stroke="none" 
	d="
M262.001709,318.588074 
	C277.975677,318.153473 293.955566,318.153473 309.056305,318.153473 
	C307.708191,304.278412 305.423615,290.794464 305.281952,277.288025 
	C304.953613,245.980637 305.547699,214.660568 306.048584,183.350143 
	C306.143677,177.406784 307.533203,171.484146 308.587280,165.266541 
	C311.385406,164.929611 313.921783,164.878098 316.458160,164.826584 
	C316.343628,167.248062 316.438507,169.701630 316.073120,172.084656 
	C315.171112,177.968033 313.277130,183.803574 313.160614,189.685669 
	C312.550690,220.471909 311.872131,251.273361 312.285065,282.055176 
	C312.450256,294.369415 312.491852,306.961273 316.664459,319.010712 
	C318.348358,323.873352 316.976135,324.994537 311.512115,325.000946 
	C297.015961,325.017914 282.515900,324.814911 268.025909,325.114136 
	C263.241028,325.212921 261.137115,323.908722 262.001709,318.588074 
z"/>
<path fill="#F4A7D7" opacity="1.000000" stroke="none" 
	d="
M325.010071,318.584595 
	C347.264679,318.091644 369.524445,317.898163 391.781281,318.072968 
	C397.042267,318.114319 400.484314,316.082611 403.511353,312.084869 
	C408.592773,305.373901 410.532990,297.623871 411.523071,289.546661 
	C413.480011,273.581757 412.571777,258.048798 403.859283,243.468872 
	C405.510742,244.479019 407.743805,245.500275 408.945679,247.235718 
	C418.209106,260.610901 421.370422,275.429504 419.381714,291.566162 
	C418.155701,301.514221 416.490814,311.123169 410.387878,319.524597 
	C407.685242,323.245117 404.679626,325.090729 400.009674,325.063385 
	C377.023834,324.928680 354.035400,324.869659 331.051331,325.113037 
	C326.258942,325.163727 324.191986,323.871948 325.010071,318.584595 
z"/>
<path fill="#BB87DF" opacity="1.000000" stroke="none" 
	d="
M147.973923,318.130859 
	C153.694275,317.537445 156.191635,313.137787 158.986832,308.972626 
	C164.444962,300.839294 164.975113,291.413208 165.734299,282.201202 
	C166.816956,269.064087 164.624069,256.389343 158.445099,244.347565 
	C162.278763,249.707840 166.652908,255.074982 169.046082,261.214294 
	C175.326859,277.326752 173.731949,293.743073 168.994156,310.009125 
	C168.994156,310.009125 168.911453,310.379913 168.581604,310.693695 
	C167.053528,312.946960 165.949066,314.952698 164.636414,316.811371 
	C162.312988,320.101257 160.881790,324.406616 155.613388,324.621521 
	C138.814499,324.247284 122.332108,324.110779 105.849495,324.010468 
	C98.683289,323.966858 91.512856,324.111969 84.354118,323.875488 
	C83.235657,323.838562 82.169487,322.218201 81.079140,321.330017 
	C82.119484,320.557983 83.062927,319.523895 84.229256,319.092560 
	C85.256790,318.712646 86.533401,319.002991 87.700012,319.002960 
	C106.032845,319.002228 124.365746,319.026093 142.698380,318.964447 
	C144.457794,318.958527 146.215454,318.421387 147.973923,318.130859 
z"/>
<path fill="#F4A8D7" opacity="1.000000" stroke="none" 
	d="
M365.095703,200.260971 
	C372.845459,203.686783 380.784882,207.023956 389.629974,206.867401 
	C392.731964,206.812515 395.936707,206.391312 398.892700,205.481491 
	C406.161377,203.244293 407.721558,200.900208 407.746002,193.318222 
	C407.776520,183.857620 407.760193,174.396881 407.872223,164.481323 
	C415.000214,164.009705 414.999176,164.009705 414.997040,171.002991 
	C414.994141,180.488739 414.990417,189.974487 414.991943,199.460236 
	C414.993317,208.216156 411.085510,213.101517 402.182007,213.822144 
	C387.981018,214.971542 375.291046,211.136612 365.095703,200.260971 
z"/>
<path fill="#BA86DB" opacity="1.000000" stroke="none" 
	d="
M119.384888,200.899185 
	C125.804771,202.561295 131.996490,205.014114 138.416016,206.444916 
	C145.080887,207.930435 151.853745,207.142273 157.458237,202.843063 
	C159.251099,201.467758 160.804932,198.608231 160.884125,196.371689 
	C161.255325,185.891113 161.074142,175.390991 161.168991,164.435349 
	C163.224274,164.065811 165.200836,164.158768 167.702438,164.276413 
	C167.815399,166.047806 168.000443,167.637680 168.004745,169.228058 
	C168.034866,180.347397 167.845886,191.471390 168.123718,202.583954 
	C168.231644,206.900665 166.565811,209.270737 162.847946,211.110641 
	C153.459412,215.756836 143.977371,214.657242 134.930237,210.965622 
	C129.317551,208.675430 124.455681,204.545197 119.384888,200.899185 
z"/>
<path fill="#F1B4B4" opacity="1.000000" stroke="none" 
	d="
M198.104477,280.007355 
	C196.080582,267.824554 193.637787,255.691223 192.190643,243.440277 
	C191.329147,236.147141 192.032806,228.669128 192.032806,221.274231 
	C192.495560,221.037338 192.958313,220.800461 193.421066,220.563583 
	C195.589493,223.807129 197.757919,227.050674 199.970398,230.637665 
	C199.791473,238.164062 199.119843,245.368484 199.461456,252.524506 
	C199.869156,261.064758 201.144699,269.563599 201.979645,278.828186 
	C200.644836,279.719818 199.374649,279.863586 198.104477,280.007355 
z"/>
<path fill="#FBC7F8" opacity="1.000000" stroke="none" 
	d="
M155.929794,324.873962 
	C160.881790,324.406616 162.312988,320.101257 164.636414,316.811371 
	C165.949066,314.952698 167.053528,312.946960 168.580750,310.883636 
	C167.601791,314.961609 167.323441,320.055817 164.682724,323.102356 
	C162.270004,325.885895 157.323578,327.718140 153.453766,327.789093 
	C130.509140,328.210083 107.552826,328.010284 84.600563,327.963623 
	C83.137688,327.960632 81.653931,327.578247 80.217178,327.221954 
	C73.987938,325.677246 73.247833,323.813568 76.876053,318.566132 
	C77.404228,318.130219 77.923607,318.087433 78.663429,318.552856 
	C79.052010,321.854797 77.855873,325.110199 82.960930,325.064636 
	C107.282524,324.847687 131.606598,324.910614 155.929794,324.873962 
z"/>
<path fill="#E8B8ED" opacity="1.000000" stroke="none" 
	d="
M104.471512,262.826385 
	C117.759743,269.187683 130.940109,275.821259 143.959808,282.756409 
	C147.859283,284.833527 151.310150,287.752838 155.033676,290.623108 
	C153.106842,290.873810 150.916260,291.295471 149.153397,290.612701 
	C142.006393,287.844818 134.895508,284.939636 127.966339,281.671600 
	C124.412247,279.995361 121.324501,277.354828 117.921799,275.324768 
	C115.556717,273.913727 113.136032,272.261108 110.524452,271.670776 
	C105.724648,270.585815 104.775581,267.200012 104.471512,262.826385 
z"/>
<path fill="#FCB4AF" opacity="1.000000" stroke="none" 
	d="
M257.980865,271.985809 
	C257.664459,273.099457 257.348022,274.213074 256.625031,275.716980 
	C255.316696,276.790283 254.083023,277.282684 253.564133,278.185760 
	C248.039337,287.801300 239.027084,291.362549 228.702576,292.457092 
	C227.285934,292.607269 225.711807,291.272003 223.360703,290.257843 
	C229.224213,288.951172 233.610214,287.973755 237.998108,286.998169 
	C238.000000,287.000000 238.004272,287.003662 238.256836,287.252258 
	C243.445145,286.808563 239.827988,282.987427 240.927231,280.891632 
	C240.927231,280.891632 240.975494,280.979736 241.322693,280.971924 
	C243.102570,280.358246 245.295837,280.144287 245.843109,279.082184 
	C249.108536,272.744873 252.212067,266.300598 254.901184,259.701233 
	C255.992813,257.022247 255.478516,253.497208 259.961487,254.367966 
	C259.998718,255.496994 260.011200,256.250122 260.012207,257.340027 
	C259.988220,258.126007 259.975708,258.575165 259.700928,259.240936 
	C259.290497,261.301575 259.142334,263.145630 258.994995,265.392212 
	C258.975891,266.868042 258.955902,267.941284 258.628113,269.067810 
	C258.207123,270.075989 258.093994,271.030914 257.980865,271.985809 
z"/>
<path fill="#ECB4B5" opacity="1.000000" stroke="none" 
	d="
M229.873611,197.963501 
	C222.458344,188.070084 215.989304,177.785934 217.666168,164.300293 
	C225.050095,164.097870 225.192612,164.103165 224.925232,171.299896 
	C224.658157,178.489197 225.505508,185.340897 228.946167,191.818344 
	C229.863495,193.545334 229.800888,195.792862 229.873611,197.963501 
z"/>
<path fill="#F0B2B3" opacity="1.000000" stroke="none" 
	d="
M240.598663,281.014313 
	C239.827988,282.987427 243.445145,286.808563 238.527527,287.211365 
	C238.854691,286.629730 239.163757,286.337585 239.472809,286.045441 
	C239.275101,285.875977 239.077377,285.706512 238.879639,285.537079 
	C238.585159,286.023499 238.290680,286.509918 237.996216,286.996338 
	C233.610214,287.973755 229.224213,288.951172 223.360703,290.257843 
	C225.711807,291.272003 227.285934,292.607269 228.702576,292.457092 
	C239.027084,291.362549 248.039337,287.801300 253.564133,278.185760 
	C254.083023,277.282684 255.316696,276.790283 256.554199,276.059509 
	C251.328995,288.325287 242.178284,295.193420 228.836380,294.823669 
	C225.836853,294.740540 222.717743,293.456299 219.980835,292.076202 
	C218.856644,291.509308 218.598129,289.225647 217.968506,287.404999 
	C226.232529,288.155457 233.719162,286.398041 240.598663,281.014313 
z"/>
<path fill="#FBC7F8" opacity="1.000000" stroke="none" 
	d="
M169.362610,309.951904 
	C173.731949,293.743073 175.326859,277.326752 169.046082,261.214294 
	C166.652908,255.074982 162.278763,249.707840 158.463837,243.987061 
	C157.594772,243.271667 157.069275,242.557999 156.490814,241.512299 
	C157.514297,241.191742 159.136200,240.750793 159.580582,241.286545 
	C163.023010,245.436829 167.186874,249.352463 169.324905,254.144867 
	C173.711731,263.977966 174.240799,274.710266 175.392075,285.393463 
	C176.264450,293.488495 174.126999,300.298492 171.865570,307.451874 
	C171.566879,308.396637 170.462372,309.086639 169.362610,309.951904 
z"/>
<path fill="#ECB5B9" opacity="1.000000" stroke="none" 
	d="
M198.075195,280.391663 
	C199.374649,279.863586 200.644836,279.719818 201.974228,279.264709 
	C203.193573,281.357300 204.950638,283.652496 205.411514,286.183685 
	C207.514954,297.736115 212.707443,307.911316 218.698914,317.789581 
	C218.936844,318.181824 218.873062,318.757111 218.567322,319.617981 
	C217.096451,319.247101 216.008118,318.505371 214.919769,317.763641 
	C207.487259,306.259155 201.813889,293.952179 198.075195,280.391663 
z"/>
<path fill="#F7B7B7" opacity="1.000000" stroke="none" 
	d="
M214.554520,317.824677 
	C216.008118,318.505371 217.096451,319.247101 218.565552,319.988708 
	C219.159424,320.251831 219.372543,320.515076 219.796616,321.300110 
	C220.007050,322.844818 220.006516,323.867767 220.005997,324.890747 
	C215.966721,324.922302 211.927444,324.953857 207.114746,324.701172 
	C199.955399,324.184753 193.569473,323.952545 185.953232,323.675629 
	C187.588287,321.716034 188.133789,320.448761 188.757828,320.408813 
	C195.289978,319.990753 201.838272,319.829102 208.372803,319.440338 
	C209.600784,319.367279 210.787766,318.605133 211.993668,318.160980 
	C212.725540,318.069214 213.457397,317.977448 214.554520,317.824677 
z"/>
<path fill="#B588D3" opacity="1.000000" stroke="none" 
	d="
M91.840286,196.815842 
	C86.876144,194.274704 84.254227,189.857208 84.040634,184.192230 
	C83.845772,179.024170 87.675415,176.383438 92.241798,178.769440 
	C95.409836,180.424774 98.072617,183.047058 101.060867,185.563538 
	C91.883934,184.574600 89.549973,187.218323 91.840286,196.815842 
z"/>
<path fill="#EAA7D1" opacity="1.000000" stroke="none" 
	d="
M330.220184,183.942947 
	C330.390778,183.521912 330.561371,183.100876 330.834961,182.101898 
	C330.935303,181.351242 330.932678,181.178558 330.930084,181.005890 
	C333.675140,176.843506 337.075317,177.314331 340.670898,179.697235 
	C342.168457,180.689713 343.552490,181.853531 345.085052,183.254700 
	C339.399445,185.471054 337.435638,189.828537 337.219238,195.759247 
	C336.928619,196.021500 336.467621,196.031082 336.127625,195.686493 
	C334.617462,194.056442 333.447327,192.770981 332.277191,191.485535 
	C332.021362,190.773239 331.765533,190.060944 331.301086,188.728806 
	C330.801727,186.720291 330.510956,185.331619 330.220184,183.942947 
z"/>
<path fill="#ECB5B9" opacity="1.000000" stroke="none" 
	d="
M211.531189,318.085480 
	C210.787766,318.605133 209.600784,319.367279 208.372803,319.440338 
	C201.838272,319.829102 195.289978,319.990753 188.757828,320.408813 
	C188.133789,320.448761 187.588287,321.716034 185.953232,323.675629 
	C193.569473,323.952545 199.955399,324.184753 206.649033,324.683502 
	C199.572845,325.277649 192.188950,325.605225 183.992783,325.968842 
	C184.945389,322.545166 185.453659,320.718414 185.963257,318.524475 
	C194.332626,318.108246 202.700653,318.059113 211.531189,318.085480 
z"/>
<path fill="#E6C1D9" opacity="1.000000" stroke="none" 
	d="
M428.023956,324.915222 
	C427.468933,327.436646 426.913910,329.958038 426.063446,333.821716 
	C422.905060,331.027832 420.243500,328.673462 417.633881,326.365051 
	C419.230865,324.623932 420.568298,323.165771 422.261444,321.480316 
	C424.419434,322.473755 426.221710,323.694489 428.023956,324.915222 
z"/>
<path fill="#3C1E32" opacity="1.000000" stroke="none" 
	d="
M399.814209,339.040466 
	C401.086975,338.926025 402.012665,338.926025 402.938385,338.926025 
	C403.051270,339.181549 403.164154,339.437103 403.277039,339.692627 
	C401.911041,340.451904 400.545044,341.211212 398.695068,342.239532 
	C401.354462,344.338043 407.286865,340.860992 406.514008,346.528046 
	C406.058411,349.868713 402.768890,350.729553 398.576904,349.362122 
	C400.968262,348.226196 402.699890,347.403656 404.686768,346.459839 
	C401.660431,345.298615 399.311005,344.397156 396.961609,343.495667 
	C397.796814,342.048767 398.632019,340.601837 399.814209,339.040466 
z"/>
<path fill="#3B1F31" opacity="1.000000" stroke="none" 
	d="
M372.484375,346.185150 
	C374.381226,346.133423 375.916351,346.227325 377.451477,346.321259 
	C377.492859,346.643341 377.534241,346.965424 377.575623,347.287506 
	C376.436584,347.918060 375.297577,348.548615 375.050171,348.685577 
	C376.017548,351.287231 378.176819,354.464111 377.405823,355.538940 
	C375.481628,358.221313 372.435547,357.507355 370.084106,354.632599 
	C371.960297,354.728607 373.836487,354.824646 375.803467,354.925293 
	C376.230103,351.015686 365.251831,352.668823 372.484375,346.185150 
z"/>
<path fill="#36182C" opacity="1.000000" stroke="none" 
	d="
M385.651550,350.218140 
	C388.315216,350.704071 389.196350,349.196716 389.667603,346.895386 
	C389.968475,345.426117 390.728180,344.050812 391.282166,342.633392 
	C391.748413,342.706909 392.214630,342.780396 392.680878,342.853912 
	C393.538879,346.205994 394.396881,349.558075 395.254883,352.910156 
	C394.851318,353.073761 394.447754,353.237335 394.044189,353.400940 
	C393.292358,351.680969 392.540527,349.961029 391.704834,348.049286 
	C390.998230,349.646820 390.391266,351.019073 389.584534,352.842987 
	C388.240936,351.585175 387.267456,350.673798 385.969116,349.960266 
	C385.644257,350.158112 385.651550,350.218140 385.651550,350.218140 
z"/>
<path fill="#401F34" opacity="1.000000" stroke="none" 
	d="
M414.702148,328.396606 
	C415.457703,330.050751 415.630859,331.838440 416.458923,333.238861 
	C417.477234,334.960938 419.041901,336.359924 421.245575,338.912170 
	C415.646027,338.278473 415.092499,330.371124 409.125458,333.291748 
	C410.887024,331.647278 412.648590,330.002808 414.702148,328.396606 
z"/>
<path fill="#3B1F31" opacity="1.000000" stroke="none" 
	d="
M428.345459,324.992737 
	C426.221710,323.694489 424.419434,322.473755 422.304230,321.138489 
	C422.773468,320.303528 423.464111,319.142334 424.357300,318.956940 
	C426.075043,318.600433 427.907471,318.796600 430.079773,318.241791 
	C430.668121,317.440216 430.869080,317.160370 431.070007,316.880554 
	C432.332184,320.503448 432.332184,320.503448 426.916382,321.346802 
	C428.646729,322.616150 430.151825,323.720215 431.656921,324.824280 
	C431.530304,325.135193 431.403717,325.446075 431.277130,325.756989 
	C430.407043,325.528076 429.536987,325.299164 428.345459,324.992737 
z"/>
<path fill="#E6BEC4" opacity="1.000000" stroke="none" 
	d="
M258.935913,269.014526 
	C258.955902,267.941284 258.975891,266.868042 259.261658,265.118958 
	C259.672668,262.636841 259.817932,260.830566 259.963196,259.024323 
	C259.975708,258.575165 259.988220,258.126007 260.345398,257.344269 
	C261.134888,257.008148 261.579712,257.004608 262.024536,257.001068 
	C261.762299,262.075989 261.500092,267.150940 261.099609,272.614929 
	C260.419098,272.779236 259.876770,272.554504 259.160797,271.730774 
	C258.970062,270.426056 258.952972,269.720276 258.935913,269.014526 
z"/>
<path fill="#3C1E32" opacity="1.000000" stroke="none" 
	d="
M385.624878,349.737732 
	C385.651550,350.218140 385.644257,350.158112 385.662537,350.159912 
	C385.526764,351.927155 385.372650,353.692596 385.217194,355.473694 
	C382.494781,355.360535 382.206421,354.693054 381.285492,345.590118 
	C384.771881,345.613922 384.771881,345.613922 385.624878,349.737732 
z"/>
<path fill="#36182C" opacity="1.000000" stroke="none" 
	d="
M431.205322,316.582581 
	C430.869080,317.160370 430.668121,317.440216 430.244812,317.854919 
	C428.763916,315.962219 427.505402,313.934570 426.246887,311.906952 
	C426.710175,311.513763 427.173462,311.120605 427.636749,310.727417 
	C430.690491,312.580261 433.744263,314.433105 436.798004,316.285980 
	C436.691040,316.579895 436.584076,316.873840 436.477112,317.167755 
	C434.764984,316.873383 433.052826,316.579010 431.205322,316.582581 
z"/>
<path fill="#E8B8ED" opacity="1.000000" stroke="none" 
	d="
M98.133415,258.066956 
	C100.163353,259.022552 102.149750,260.421997 104.317474,262.082947 
	C98.408806,264.942322 98.087868,264.750336 98.133415,258.066956 
z"/>
<path fill="#ECB5B9" opacity="1.000000" stroke="none" 
	d="
M220.323639,324.858978 
	C220.006516,323.867767 220.007050,322.844818 220.011108,321.437958 
	C220.223526,322.311798 220.432404,323.569489 220.323639,324.858978 
z"/>
<path fill="#210D19" opacity="1.000000" stroke="none" 
	d="
M340.716980,199.703979 
	C339.632904,199.328339 338.485626,198.640259 337.434235,197.572388 
	C338.571350,197.925583 339.612579,198.658569 340.716980,199.703979 
z"/>
<path fill="#F0B2B3" opacity="1.000000" stroke="none" 
	d="
M258.628052,269.067810 
	C258.952972,269.720276 258.970062,270.426056 258.996002,271.480438 
	C258.835876,271.865753 258.666870,271.902435 258.239380,271.962463 
	C258.093994,271.030914 258.207123,270.075989 258.628052,269.067810 
z"/>
<path fill="#F4A8D7" opacity="1.000000" stroke="none" 
	d="
M362.106171,198.300766 
	C362.973236,198.422623 363.888885,198.891678 364.941803,199.644012 
	C364.104309,199.500854 363.129517,199.074417 362.106171,198.300766 
z"/>
<path fill="#BA86DB" opacity="1.000000" stroke="none" 
	d="
M117.024612,199.390686 
	C117.688766,199.345139 118.400963,199.646988 119.257484,200.211243 
	C118.625420,200.228455 117.849037,199.983261 117.024612,199.390686 
z"/>
<path fill="#E6C1D9" opacity="1.000000" stroke="none" 
	d="
M429.534668,327.473145 
	C429.556000,327.514008 429.513336,327.432281 429.534668,327.473145 
z"/>
<path fill="#F0B2B3" opacity="1.000000" stroke="none" 
	d="
M259.936737,253.992065 
	C255.478516,253.497208 255.992813,257.022247 254.901184,259.701233 
	C252.212067,266.300598 249.108536,272.744873 245.843109,279.082184 
	C245.295837,280.144287 243.102570,280.358246 241.280273,280.945007 
	C255.157516,266.983948 255.542542,250.717957 249.451981,233.009857 
	C248.283997,229.614014 249.449402,225.415604 250.008575,221.070831 
	C250.534576,219.930313 250.590302,219.306427 250.646027,218.682556 
	C250.646027,218.682556 250.687057,218.802155 250.975800,218.680481 
	C254.370026,210.928391 257.475494,203.297958 260.563049,195.711578 
	C261.822540,196.777527 262.534149,197.379791 263.245758,197.982025 
	C263.330933,201.361557 263.416107,204.741104 263.137573,208.663193 
	C262.508789,209.784744 262.243713,210.363739 261.924927,211.326141 
	C260.619659,215.488052 258.989716,219.190033 258.206268,223.063217 
	C257.063629,228.712189 254.101608,234.104614 256.690918,240.343887 
	C258.460480,244.607925 258.901672,249.423218 259.936737,253.992065 
z"/>
<path fill="#FACCE2" opacity="1.000000" stroke="none" 
	d="
M259.961487,254.367966 
	C258.901672,249.423218 258.460480,244.607925 256.690918,240.343887 
	C254.101608,234.104614 257.063629,228.712189 258.206268,223.063217 
	C258.989716,219.190033 260.619659,215.488052 262.225159,211.361191 
	C262.780151,211.022919 262.981201,211.032974 263.182220,211.043015 
	C262.800140,221.586380 262.351868,232.127960 262.067230,242.673950 
	C261.946747,247.139038 262.170166,251.613434 262.130920,256.542328 
	C261.579712,257.004608 261.134888,257.008148 260.356873,257.007446 
	C260.011200,256.250122 259.998718,255.496994 259.961487,254.367966 
z"/>
<path fill="#E7BABF" opacity="1.000000" stroke="none" 
	d="
M263.376923,197.546844 
	C262.534149,197.379791 261.822540,196.777527 260.563049,195.711578 
	C257.475494,203.297958 254.370026,210.928391 250.914764,218.664032 
	C254.210892,207.865997 257.856842,196.962784 261.502777,186.059570 
	C262.171204,186.205566 262.839661,186.351547 263.508087,186.497543 
	C263.508087,190.035583 263.508087,193.573608 263.376923,197.546844 
z"/>
<path fill="#E7BABF" opacity="1.000000" stroke="none" 
	d="
M263.340057,210.816071 
	C262.981201,211.032974 262.780151,211.022919 262.278870,210.977783 
	C262.243713,210.363739 262.508789,209.784744 263.004272,209.105118 
	C263.322449,209.532700 263.410187,210.060913 263.340057,210.816071 
z"/>
<path fill="#E7BABF" opacity="1.000000" stroke="none" 
	d="
M250.420074,218.902756 
	C250.590302,219.306427 250.534576,219.930313 250.233475,220.765198 
	C250.056778,220.358444 250.125458,219.740707 250.420074,218.902756 
z"/>
<path fill="#210D19" opacity="1.000000" stroke="none" 
	d="
M332.123566,191.798615 
	C333.447327,192.770981 334.617462,194.056442 335.900543,195.646454 
	C334.479095,195.903870 332.944702,195.856705 331.410309,195.809540 
	C331.596863,194.576920 331.783386,193.344315 332.123566,191.798615 
z"/>
<path fill="#210D19" opacity="1.000000" stroke="none" 
	d="
M329.974182,184.082016 
	C330.510956,185.331619 330.801727,186.720291 331.087708,188.539429 
	C330.631348,187.386948 330.179749,185.804016 329.974182,184.082016 
z"/>
<path fill="#210D19" opacity="1.000000" stroke="none" 
	d="
M330.777039,181.078583 
	C330.932678,181.178558 330.935303,181.351242 330.833130,181.760818 
	C330.630676,181.808228 330.509491,181.625900 330.448578,181.425278 
	C330.428131,181.357925 330.561157,181.243942 330.777039,181.078583 
z"/>
<path fill="#B98AD0" opacity="1.000000" stroke="none" 
	d="
M155.613388,324.621521 
	C131.606598,324.910614 107.282524,324.847687 82.960930,325.064636 
	C77.855873,325.110199 79.052010,321.854797 78.917999,318.628296 
	C101.652443,318.120789 124.352760,318.046051 147.513504,318.051086 
	C146.215454,318.421387 144.457794,318.958527 142.698380,318.964447 
	C124.365746,319.026093 106.032845,319.002228 87.700012,319.002960 
	C86.533401,319.002991 85.256790,318.712646 84.229256,319.092560 
	C83.062927,319.523895 82.119484,320.557983 81.079140,321.330017 
	C82.169487,322.218201 83.235657,323.838562 84.354118,323.875488 
	C91.512856,324.111969 98.683289,323.966858 105.849495,324.010468 
	C122.332108,324.110779 138.814499,324.247284 155.613388,324.621521 
z"/>
<path fill="#F0B2B3" opacity="1.000000" stroke="none" 
	d="
M259.700928,259.240936 
	C259.817932,260.830566 259.672668,262.636841 259.260773,264.716370 
	C259.142334,263.145630 259.290497,261.301575 259.700928,259.240936 
z"/>
<path fill="#FCB4AF" opacity="1.000000" stroke="none" 
	d="
M237.998108,286.998169 
	C238.290680,286.509918 238.585159,286.023499 238.879639,285.537079 
	C239.077377,285.706512 239.275101,285.875977 239.472809,286.045441 
	C239.163757,286.337585 238.854691,286.629730 238.274948,286.962769 
	C238.004272,287.003662 238.000000,287.000000 237.998108,286.998169 
z"/>
</svg>